<svg width="40" height="40" viewBox="0 0 40 40" fill="none" xmlns="http://www.w3.org/2000/svg">
<path d="M27.0781 14.5781L21.6563 20L27.0781 25.4219C27.1933 25.5292 27.2856 25.6585 27.3497 25.8023C27.4137 25.946 27.4482 26.1012 27.4509 26.2586C27.4537 26.4159 27.4248 26.5722 27.3658 26.7181C27.3069 26.864 27.2192 26.9966 27.1079 27.1079C26.9966 27.2192 26.864 27.3069 26.7181 27.3658C26.5722 27.4248 26.4159 27.4537 26.2586 27.4509C26.1012 27.4481 25.946 27.4137 25.8023 27.3497C25.6585 27.2856 25.5292 27.1933 25.4219 27.0781L20 21.6562L14.5781 27.0781C14.356 27.2851 14.0622 27.3978 13.7586 27.3925C13.455 27.3871 13.1653 27.2641 12.9506 27.0494C12.7359 26.8347 12.6129 26.545 12.6075 26.2414C12.6022 25.9378 12.7149 25.644 12.9219 25.4219L18.3438 20L12.9219 14.5781C12.7149 14.356 12.6022 14.0622 12.6075 13.7586C12.6129 13.455 12.7359 13.1653 12.9506 12.9506C13.1653 12.7359 13.455 12.6129 13.7586 12.6075C14.0622 12.6022 14.356 12.7149 14.5781 12.9219L20 18.3438L25.4219 12.9219C25.644 12.7149 25.9379 12.6022 26.2414 12.6075C26.545 12.6129 26.8347 12.7359 27.0494 12.9506C27.2641 13.1653 27.3871 13.455 27.3925 13.7586C27.3978 14.0622 27.2851 14.356 27.0781 14.5781ZM39.9219 20C39.9219 23.9402 38.7535 27.7919 36.5644 31.068C34.3754 34.3441 31.264 36.8976 27.6238 38.4054C23.9835 39.9133 19.9779 40.3078 16.1134 39.5391C12.249 38.7704 8.69924 36.873 5.91312 34.0869C3.12699 31.3008 1.22962 27.751 0.460927 23.8866C-0.307763 20.0221 0.0867565 16.0165 1.5946 12.3762C3.10244 8.73598 5.65587 5.62461 8.93201 3.43557C12.2081 1.24652 16.0598 0.078125 20 0.078125C25.2817 0.0843278 30.3453 2.18523 34.0801 5.91996C37.8148 9.65469 39.9157 14.7183 39.9219 20ZM37.5781 20C37.5781 16.5234 36.5472 13.1248 34.6157 10.2341C32.6842 7.34341 29.9389 5.09038 26.7269 3.75993C23.5149 2.42948 19.9805 2.08138 16.5707 2.75963C13.1609 3.43789 10.0287 5.11204 7.5704 7.57039C5.11205 10.0287 3.4379 13.1609 2.75964 16.5707C2.08139 19.9805 2.42949 23.5149 3.75994 26.7269C5.09039 29.9388 7.34342 32.6842 10.2341 34.6157C13.1248 36.5472 16.5234 37.5781 20 37.5781C24.6604 37.573 29.1285 35.7193 32.4239 32.4239C35.7193 29.1285 37.573 24.6604 37.5781 20Z" fill="black"/>
</svg>
