<svg width="44" height="42" viewBox="0 0 44 42" fill="none" xmlns="http://www.w3.org/2000/svg">
<path d="M43.7829 16.1152C43.6127 15.5858 43.2847 15.1189 42.8414 14.7752C42.3981 14.4314 41.8599 14.2267 41.2968 14.1875L29.3331 13.2363L24.7224 2.25977C24.5073 1.74527 24.1416 1.30526 23.6717 0.995606C23.2018 0.685953 22.649 0.52063 22.0834 0.52063C21.5179 0.52063 20.965 0.685953 20.4952 0.995606C20.0253 1.30526 19.6596 1.74527 19.4445 2.25977L14.8337 13.2324L2.87002 14.1875C2.30643 14.227 1.76795 14.4323 1.32458 14.7768C0.881212 15.1213 0.553465 15.589 0.383953 16.1191C0.207252 16.6479 0.193668 17.2162 0.344913 17.7526C0.496159 18.2889 0.805462 18.7692 1.23382 19.1328L10.3679 26.8691L7.58799 38.4414C7.45754 38.983 7.49339 39.5504 7.69098 40.0719C7.88857 40.5935 8.23902 41.0456 8.69798 41.3711C9.15127 41.7014 9.69543 41.8893 10.2592 41.9103C10.8229 41.9312 11.3799 41.7841 11.8572 41.4883L22.0834 35.3047L32.3256 41.4981C32.8028 41.7939 33.3599 41.9409 33.9236 41.92C34.4873 41.8991 35.0315 41.7112 35.4848 41.3809C35.9437 41.0554 36.2942 40.6032 36.4918 40.0817C36.6894 39.5602 36.7252 38.9927 36.5948 38.4512L33.8148 26.8789L42.933 19.1328C43.3622 18.7689 43.672 18.2879 43.8232 17.7508C43.9745 17.2137 43.9605 16.6445 43.7829 16.1152ZM41.3723 17.3594L31.704 25.5625C31.5391 25.7025 31.4163 25.8843 31.3491 26.0882C31.2819 26.2921 31.2728 26.5102 31.3228 26.7188L34.2775 38.9824C34.3033 39.075 34.2991 39.1732 34.2652 39.2632C34.2314 39.3533 34.1697 39.4306 34.0888 39.4844C34.0156 39.5401 33.9264 39.5719 33.8339 39.5754C33.7413 39.5789 33.65 39.5539 33.5726 39.5039L22.7069 32.9375C22.5194 32.8242 22.3036 32.7642 22.0834 32.7642C21.8633 32.7642 21.6475 32.8242 21.4599 32.9375L10.5943 39.502C10.5169 39.552 10.4255 39.577 10.333 39.5735C10.2404 39.57 10.1513 39.5382 10.078 39.4824C9.99538 39.43 9.93168 39.3533 9.89602 39.2631C9.86036 39.173 9.85457 39.0741 9.87946 38.9805L12.8341 26.7168C12.8842 26.5082 12.8751 26.2901 12.8079 26.0863C12.7406 25.8824 12.6179 25.7006 12.4529 25.5606L2.78464 17.3574C2.70878 17.2967 2.65406 17.2142 2.62808 17.1214C2.6021 17.0287 2.60616 16.9302 2.63968 16.8398C2.66558 16.7507 2.7191 16.6718 2.79278 16.614C2.86646 16.5563 2.95663 16.5225 3.05072 16.5176L15.7432 15.5098C15.9619 15.4923 16.1714 15.4158 16.3487 15.2886C16.526 15.1614 16.6642 14.9886 16.7479 14.7891L21.6386 3.14844C21.6727 3.06227 21.7325 2.98824 21.8101 2.93604C21.8877 2.88385 21.9795 2.85592 22.0735 2.85592C22.1675 2.85592 22.2593 2.88385 22.3369 2.93604C22.4145 2.98824 22.4743 3.06227 22.5084 3.14844L27.3991 14.7891C27.4829 14.9886 27.621 15.1614 27.7983 15.2886C27.9756 15.4158 28.1851 15.4923 28.4038 15.5098L41.0963 16.5176C41.1904 16.5225 41.2805 16.5563 41.3542 16.614C41.4279 16.6718 41.4814 16.7507 41.5073 16.8398C41.5424 16.9295 41.5483 17.0277 41.5241 17.1208C41.4999 17.2139 41.4468 17.2973 41.3723 17.3594Z" fill="black"/>
</svg>
