<svg width="44" height="42" viewBox="0 0 44 42" fill="none" xmlns="http://www.w3.org/2000/svg">
<path d="M42.7598 19.4316L33.9707 27.0156L36.6484 38.3574C36.7962 38.9731 36.7581 39.6188 36.5391 40.2129C36.3201 40.8069 35.9299 41.3228 35.4178 41.6952C34.9058 42.0677 34.2948 42.28 33.6622 42.3054C33.0295 42.3308 32.4035 42.1681 31.8633 41.8379L22 35.7676L12.1309 41.8379C11.5907 42.1662 10.9654 42.3273 10.3339 42.301C9.70229 42.2747 9.09263 42.0621 8.58164 41.6899C8.07066 41.3178 7.6812 40.8028 7.46231 40.2098C7.24342 39.6168 7.20489 38.9723 7.35156 38.3574L10.0391 27.0156L1.25 19.4316C0.772067 19.0186 0.426416 18.4739 0.256216 17.8655C0.086016 17.2572 0.0988095 16.6122 0.292999 16.0111C0.487188 15.41 0.854166 14.8794 1.3481 14.4856C1.84204 14.0918 2.44105 13.8523 3.07031 13.7969L14.5937 12.8672L19.0391 2.10938C19.2797 1.52308 19.6892 1.02158 20.2156 0.668632C20.7419 0.315683 21.3614 0.127228 21.9951 0.127228C22.6289 0.127228 23.2483 0.315683 23.7747 0.668632C24.301 1.02158 24.7106 1.52308 24.9512 2.10938L29.3945 12.8672L40.918 13.7969C41.5485 13.8502 42.1492 14.0884 42.645 14.4817C43.1407 14.8749 43.5094 15.4057 43.7048 16.0075C43.9002 16.6094 43.9136 17.2555 43.7434 17.8649C43.5732 18.4744 43.227 19.0201 42.748 19.4336L42.7598 19.4316Z" fill="#CCE603" stroke="black" stroke-width="2"/>
</svg>
