<svg width="40" height="40" viewBox="0 0 40 40" fill="none" xmlns="http://www.w3.org/2000/svg">
<path d="M39.5781 37.9219L29.543 27.8867C32.4046 24.5958 33.8768 20.3223 33.649 15.9672C33.4213 11.612 31.5115 7.51536 28.3222 4.54083C25.1329 1.5663 20.9133 -0.0537363 16.5528 0.0222077C12.1923 0.0981517 8.03168 1.86415 4.9479 4.94793C1.86412 8.03171 0.0981212 12.1924 0.0221772 16.5528C-0.0537669 20.9133 1.56627 25.1329 4.5408 28.3222C7.51533 31.5115 11.612 33.4213 15.9671 33.649C20.3223 33.8768 24.5958 32.4047 27.8867 29.543L37.9219 39.5782C38.144 39.7852 38.4378 39.8978 38.7414 39.8925C39.045 39.8871 39.3347 39.7641 39.5494 39.5494C39.7641 39.3347 39.8871 39.0451 39.8925 38.7415C39.8978 38.4379 39.7851 38.1441 39.5781 37.9219ZM2.42187 16.875C2.42187 14.0165 3.26954 11.2221 4.85767 8.8453C6.4458 6.4685 8.70306 4.61601 11.344 3.52208C13.985 2.42816 16.891 2.14194 19.6947 2.69962C22.4983 3.25729 25.0736 4.63382 27.0949 6.65513C29.1162 8.67643 30.4927 11.2517 31.0504 14.0554C31.6081 16.859 31.3219 19.765 30.2279 22.406C29.134 25.047 27.2815 27.3042 24.9047 28.8924C22.5279 30.4805 19.7336 31.3282 16.875 31.3282C13.0432 31.3235 9.36971 29.7993 6.66023 27.0898C3.95076 24.3803 2.42653 20.7068 2.42187 16.875Z" fill="black"/>
</svg>
